# xmcd
#
# Track frame offsets:
#	182
#	27902
#	53620
#	67610
#	87510
#	106092
#	127172
#	143075
#	175420
#	197995
#	220400
#	244822
#	256350
#	274427
#	288565
#	306052
#
# Disc length: 4252 seconds
# Revision: 5
# Processed by: cddbd v1.5.2PL0 Copyright (c) Steve Scherf et al.
# Submitted via: dBpowerAMP V12.0
#
DISCID=f4109a10
DTITLE=Various Artist - Blues Masters, Volume 10: Blues Roots [Rhino R2 71135]
DYEAR=1993
DGENRE=Blues
TTITLE0=Jali Nyama Suso - Kedo
TTITLE1=Mandingo Griots - Tutu Jara
TTITLE2=Fula Flutist - Bengsimbe
TTITLE3=Robert Pete Williams - You're My All Night Steady
TTITLE4=Furry Lewis - Pearlee Blues
TTITLE5=Ethel Perkins and Equila Hall - My Soul Will Be Saved
TTITLE6=Ethel Perkins - A Child Will Rise
TTITLE7=One String - Rolling And Tumbling Blues
TTITLE8=J.D. Short - Slidin' Delta
TTITLE9=Rich Amerson - Black Woman
TTITLE10=Texas Prison Camp Work Gang - Go Down Old Hannah
TTITLE11=Sister Dora Alexander - Russia, Let God's Moon Alone/Times Done Changed
TTITLE12=Daddy Hotcakes - Well, I've Been Down To Memphis
TTITLE13=Mobile Strugglers - Raise A Ruckus Tonight
TTITLE14=Joe Hunter - Have You Ever Been Mistreated
TTITLE15=Lightnin' Hopkins - Penitentiary Blues
EXTD=
EXTT0=
EXTT1=
EXTT2=
EXTT3=
EXTT4=
EXTT5=
EXTT6=
EXTT7=
EXTT8=
EXTT9=
EXTT10=
EXTT11=
EXTT12=
EXTT13=
EXTT14=
EXTT15=
PLAYORDER=
